<?xml version="1.0" encoding="iso-8859-1"?>
<svg version="1.1" id="Capa_1" xmlns="http://www.w3.org/2000/svg" xmlns:xlink="http://www.w3.org/1999/xlink" x="0px" y="0px"
	 viewBox="0 0 206.466 206.466" style="enable-background:new 0 0 206.466 206.466;" xml:space="preserve">
<path d="M205.93,157.693c-3.459-9.304-8.59-18.243-15.25-26.569c-4.52-5.65-12.732-10.532-24.518-14.609
	c0.579-4.311,0.343-9.894-2.461-15.915c-4.707-10.106-16.496-10.052-24.607-7.976c-1.387-4.123-3.715-7.986-6.888-11.352
	c0.317-2.687,0.523-7.772-0.287-16.846c-1.278-14.32-6.961-30.966-7.202-31.668c-0.717-2.088-2.991-3.2-5.083-2.482
	c-2.089,0.718-3.2,2.994-2.481,5.083c0.056,0.163,5.605,16.417,6.798,29.778c1.107,12.4,0.147,16.266,0.147,16.266
	c-0.377,2.195,0.287,3.369,1.522,4.574c4.493,4.381,6.968,9.951,6.968,15.684c0,13.388-13.169,24.28-29.355,24.28
	c-16.188,0-29.356-10.892-29.356-24.28c0-6.359,2.968-12.377,8.357-16.946c1.248-1.058,1.68-2.716,1.243-4.19l0.003,0.011
	c-0.001-0.002-0.005-0.02-0.011-0.047c-0.002-0.006-0.002-0.013-0.004-0.019c-0.116-0.537-0.87-4.646,0.162-16.199
	c1.188-13.299,6.721-28.695,6.776-28.849c0.752-2.077-0.321-4.371-2.398-5.123c-2.075-0.753-4.37,0.32-5.123,2.396
	c-0.241,0.667-5.941,16.51-7.224,30.863c-0.786,8.812-0.616,13.875-0.315,16.62c-3.759,3.633-6.469,7.883-8,12.483
	c-8.115-2.113-20.015-2.229-24.75,7.938c-2.816,6.047-3.043,11.653-2.454,15.971c-11.699,4.065-19.855,8.928-24.355,14.552
	c-6.659,8.324-11.79,17.263-15.249,26.568c-0.957,2.573-0.621,5.321,0.921,7.54c1.574,2.265,4.144,3.617,6.872,3.617
	c1.843,0,3.605-0.62,5.096-1.791c0.036-0.028,0.251-0.1,0.373,0.022l6.318,6.319c1.564,1.563,3.644,2.424,5.854,2.424
	c2.212,0,4.291-0.861,5.855-2.425l5.124-5.124c0.021-0.021,0.083-0.083,0.199-0.083c0.115,0,0.178,0.062,0.198,0.082l5.474,5.475
	c1.564,1.564,3.644,2.425,5.855,2.425s4.292-0.861,5.854-2.425l4.813-4.813c0.021-0.021,0.083-0.083,0.199-0.083
	c0.115,0,0.177,0.062,0.198,0.083l4.679,4.678c1.563,1.564,3.644,2.425,5.854,2.425c2.212,0,4.292-0.861,5.855-2.425l4.503-4.503
	c0.021-0.021,0.083-0.083,0.198-0.083c0.116,0,0.179,0.062,0.199,0.082l4.871,4.872c1.563,1.564,3.643,2.425,5.854,2.425
	c2.278,0,4.479-0.952,6.039-2.613l5.233-5.576c0.022-0.024,0.083-0.088,0.204-0.088s0.185,0.067,0.204,0.088l5.234,5.576
	c1.559,1.661,3.759,2.613,6.037,2.613c2.212,0,4.291-0.861,5.854-2.425l4.873-4.873c0.021-0.02,0.082-0.082,0.197-0.082
	c0.116,0,0.179,0.062,0.199,0.083l4.503,4.503c1.563,1.564,3.644,2.425,5.855,2.425c2.211,0,4.291-0.861,5.854-2.425l4.678-4.678
	c0.021-0.021,0.083-0.083,0.198-0.083c0.116,0,0.179,0.062,0.199,0.083l4.813,4.813c1.564,1.564,3.644,2.425,5.854,2.425
	c2.212,0,4.291-0.861,5.855-2.425l5.476-5.475c0.021-0.02,0.082-0.082,0.197-0.082c0.116,0,0.179,0.062,0.199,0.083l5.123,5.124
	c1.563,1.564,3.644,2.425,5.855,2.425s4.291-0.861,5.856-2.425l6.316-6.317c0.122-0.123,0.338-0.05,0.373-0.022
	c1.491,1.171,3.253,1.791,5.096,1.791c0.001,0,0.001,0,0.001,0c2.729,0,5.298-1.352,6.872-3.617
	C206.551,163.015,206.887,160.266,205.93,157.693z M83.445,80.423c-0.002-0.007-0.007-0.014-0.009-0.022l0.002-0.001L83.445,80.423z
	 M47.918,114.133c-0.192-2.86,0.164-6.371,1.927-10.155c2.866-6.15,12.123-4.435,16.061-3.381c-0.013,0.354-0.03,0.708-0.03,1.064
	c0,2.787,0.411,5.492,1.183,8.074C60.02,111.048,53.637,112.514,47.918,114.133z M139.405,109.736
	c0.772-2.581,1.183-5.287,1.183-8.074c0-0.371-0.015-0.74-0.029-1.109c4.034-1.057,13.067-2.638,15.891,3.425
	c1.751,3.76,2.113,7.253,1.927,10.108C152.701,112.486,146.376,111.035,139.405,109.736z"/>
<g>
</g>
<g>
</g>
<g>
</g>
<g>
</g>
<g>
</g>
<g>
</g>
<g>
</g>
<g>
</g>
<g>
</g>
<g>
</g>
<g>
</g>
<g>
</g>
<g>
</g>
<g>
</g>
<g>
</g>
</svg>
